# xmcd CD database file
#
# Track frame offsets:
#	150
#	22361
#	37098
#	55970
#	73184
#	91748
#	110485
#	127510
#	143707
#	159202
#	176974
#	193566
#	210174
#	231025
#	250222
#	265097
#	287518
#
# Disc length: 4066 seconds
#
# Revision: 2
# Processed by: cddbd v1.5.2PL0 Copyright (c) Steve Scherf et al.
# Submitted via: CDex 1.70beta2
#
DISCID=eb0fe011
DTITLE=Ne-Yo, (Shaffer Chimere Smith,1979- ) - R.E.D.
DYEAR=2012
DGENRE=Adult Contemporary
TTITLE0=Cracks in Mr. Perfect - Shea Taylor
TTITLE1=Lazy Love - Shea Taylor
TTITLE2=Let Me Love You (Until You Learn to Love Yourself) - Mike DiScala, Mikkel Storleer Eriksen, Mark Hadfield, Tor Erik Hermansen
TTITLE3=Miss Right - Mikkel Storleer Eriksen, Tor Erik Hermansen
TTITLE4=Jealous
TTITLE5=Don't Make Em Like You" (feat. Wiz Khalifa) - Harmony Samuels
TTITLE6=Be the One - Mikkel Storleer Eriksen, Tor Erik Hermansen
TTITLE7=Stress Reliever - Shea Taylor
TTITLE8=She Is (feat. Tim McGraw) - Luke Laird
TTITLE9=Carry On (Her Letter to Him)
TTITLE10=Forever Now - Mikkel Storleer Eriksen, Tor Erik Hermansen
TTITLE11=Shut Me Down - Andrew Goldstein, Emanuel Kiriakou
TTITLE12=Unconditional
TTITLE13=Should Be You (feat. Fabolous and Diddy)
TTITLE14=My Other Gun
TTITLE15=Alone With You (Maddie's Song)
TTITLE16=Let's Go (feat. Calvin Harris)
EXTD=YEAR: 2012
EXTT0=
EXTT1=
EXTT2=
EXTT3=
EXTT4=
EXTT5=
EXTT6=
EXTT7=
EXTT8=
EXTT9=
EXTT10=
EXTT11=
EXTT12=
EXTT13=
EXTT14=
EXTT15=
EXTT16=
PLAYORDER=
